#!OML:ASF E:\Steps\Project 1\Capture day 1\Session 2\Subject.ASF
:FULLY-SPECIFIED
:DEGREES
978
root 9.21367 22.608 -21.3593 -155.03 -0.775931 178.376
lowerback -28.6093 -1.19715 -7.03777
upperback -2.09676 -0.0427455 -0.411631
thorax 12.7483 -0.713385 3.29307
lowerneck -4.71076 -2.171 0.18218
upperneck 3.50494 -3.00472 1.76712
head 1.92211 -1.45784 0.430806
rclavicle -5.41688e-015 -3.49861e-014
rhumerus -38.7692 -19.4864 -76.6297
rradius 31.5032
rwrist -2.09763
rhand -5.91571 -53.3295
rfingers 7.12502
rthumb 19.9134 -82.3293
lclavicle -5.41688e-015 -3.49861e-014
lhumerus -30.5709 3.15636 81.3627
lradius 22.6531
lwrist -3.42647
lhand -20.6294 -13.2116
lfingers 7.12502
lthumb 5.73218 16.6909
rfemur -20.8679 7.42647 18.5701
rtibia 5.80557
rfoot -18.2594 -6.43541
rtoes -33.4056
lfemur -20.9284 -10.0992 -20.281
ltibia 9.311
lfoot -10.7403 -0.082835
ltoes -30.4524
979
root 9.21324 22.6075 -21.3633 -155 -0.753445 178.361
lowerback -28.6106 -1.18918 -7.08344
upperback -2.12826 -0.0249358 -0.41245
thorax 12.7101 -0.708202 3.32287
lowerneck -4.33189 -1.69054 -0.295312
upperneck 3.59941 -2.34051 1.93243
head 1.88886 -1.13065 0.587309
rclavicle 1.0635e-014 -1.35174e-014
rhumerus -38.9245 -19.5104 -76.575
rradius 31.4218
rwrist -2.1187
rhand -6.15494 -53.2323
rfingers 7.12502
rthumb 19.6834 -82.2557
lclavicle 1.0635e-014 -1.35174e-014
lhumerus -30.6396 3.41941 81.2621
lradius 22.3564
lwrist -3.82563
lhand -20.6274 -12.9261
lfingers 7.12502
lthumb 5.73406 16.9763
rfemur -20.8848 7.49616 18.5226
rtibia 5.78759
rfoot -18.2431 -6.48247
rtoes -33.3994
lfemur -20.9561 -10.1547 -20.2765
ltibia 9.30732
lfoot -10.7393 -0.0116136
ltoes -30.3395
980
root 9.21001 22.6075 -21.368 -154.975 -0.785996 178.363
lowerback -28.6923 -1.18053 -7.05027
upperback -2.10934 -0.0118397 -0.457249
thorax 12.7674 -0.702334 3.26035
lowerneck -4.23677 -1.58965 -0.362626
upperneck 3.64624 -2.20525 1.97793
head 1.88708 -1.06365 0.617692
rclavicle -1.63003e-014 3.26007e-014
rhumerus -39.0444 -19.7249 -76.5414
rradius 31.4047
rwrist -2.04179
rhand -6.41335 -53.1222
rfingers 7.12502
rthumb 19.435 -82.1709
lclavicle -1.63003e-014 3.26007e-014
lhumerus -30.6317 3.59686 81.0998
lradius 22.031
lwrist -3.98372
lhand -20.7085 -12.9367
lfingers 7.12502
lthumb 5.65583 16.9679
rfemur -20.8315 7.50983 18.521
rtibia 5.69444
rfoot -18.2389 -6.51815
rtoes -33.4577
lfemur -20.9522 -10.2056 -20.2817
ltibia 9.28559
lfoot -10.7237 -0.000459906
ltoes -30.3125
981
root 9.20655 22.6072 -21.3727 -154.964 -0.756992 178.359
lowerback -28.7313 -1.14102 -7.05375
upperback -2.12247 0.0428292 -0.488148
thorax 12.764 -0.678625 3.2483
lowerneck -4.31292 -1.64526 -0.354823
upperneck 3.88281 -2.28786 2.00452
head 1.97929 -1.10299 0.621432
rclavicle 3.08116e-015 -7.55382e-015
rhumerus -39.2241 -20.0365 -76.3443
rradius 31.3528
rwrist -1.77993
rhand -6.50298 -52.9383
rfingers 7.12502
rthumb 19.3488 -81.9957
lclavicle 3.08116e-015 -7.55382e-015
lhumerus -30.687 3.80187 80.9592
lradius 21.6811
lwrist -4.19114
lhand -20.8592 -13.2782
lfingers 7.12502
lthumb 5.5103 16.6301
rfemur -20.7889 7.47037 18.5148
rtibia 5.6342
rfoot -18.2457 -6.46937
rtoes -33.6363
lfemur -20.916 -10.1972 -20.3273
ltibia 9.25348
lfoot -10.752 0.0163956
ltoes -30.6046
982
root 9.20562 22.6075 -21.3758 -154.952 -0.713092 178.399
lowerback -28.7413 -1.102 -7.07714
upperback -2.14271 0.0950878 -0.465439
thorax 12.7396 -0.656656 3.30451
lowerneck -4.40453 -1.6539 -0.349381
upperneck 4.06476 -2.29663 1.87854
head 2.0533 -1.10863 0.57957
rclavicle -9.54166e-015 7.15625e-015
rhumerus -39.3935 -20.2171 -76.145
rradius 31.3149
rwrist -1.65838
rhand -6.45224 -53.1909
rfingers 7.12502
rthumb 19.3976 -82.2434
lclavicle -9.54166e-015 7.15625e-015
lhumerus -30.7522 4.11883 80.8226
lradius 21.2911
lwrist -4.61329
lhand -20.8945 -13.509
lfingers 7.12502
lthumb 5.47617 16.4002
rfemur -20.7911 7.50987 18.5506
rtibia 5.62913
rfoot -18.2438 -6.47708
rtoes -33.7809
lfemur -20.9024 -10.1674 -20.2903
ltibia 9.23181
lfoot -10.7837 0.0546454
ltoes -30.5448
983
root 9.20585 22.6109 -21.3757 -154.926 -0.741634 178.515
lowerback -28.7539 -1.14339 -7.01412
upperback -2.08277 0.0332296 -0.450998
thorax 12.8218 -0.681397 3.26396
lowerneck -4.60283 -1.72698 -0.191409
upperneck 3.784 -2.39894 1.9003
head 1.99644 -1.15657 0.555346
rclavicle -4.42296e-015 -1.27222e-014
rhumerus -39.3244 -20.2544 -76.2865
rradius 31.3082
rwrist -1.74884
rhand -6.482 -53.3137
rfingers 7.12502
rthumb 19.369 -82.3691
lclavicle -4.42296e-015 -1.27222e-014
lhumerus -30.6875 4.48401 80.5355
lradius 21.0195
lwrist -4.81651
lhand -20.7263 -13.4836
lfingers 7.12502
lthumb 5.63862 16.4214
rfemur -20.8234 7.66676 18.6579
rtibia 5.60978
rfoot -18.1882 -6.64086
rtoes -33.788
lfemur -20.9584 -10.1518 -20.1084
ltibia 9.23514
lfoot -10.7586 0.0797617
ltoes -30.1103
984
root 9.20485 22.6068 -21.3805 -154.983 -0.721761 178.378
lowerback -28.7944 -1.1757 -7.16083
upperback -1.96757 0.0682928 -0.490849
thorax 12.9657 -0.673456 3.31406
lowerneck -4.66821 -1.96321 -0.336556
upperneck 3.32967 -2.71073 2.203
head 1.87181 -1.3096 0.666157
rclavicle 3.72721e-015 -2.34566e-014
rhumerus -39.2888 -20.3777 -76.2851
rradius 31.2795
rwrist -1.8539
rhand -6.6171 -53.038
rfingers 7.12502
rthumb 19.239 -82.1064
lclavicle 3.72721e-015 -2.34566e-014
lhumerus -30.6351 4.73805 80.4311
lradius 20.9061
lwrist -4.9041
lhand -20.5067 -13.215
lfingers 7.12502
lthumb 5.85066 16.6842
rfemur -20.7093 7.59461 18.513
rtibia 5.5431
rfoot -18.1646 -6.66529
rtoes -34.0106
lfemur -20.8419 -10.1544 -20.2999
ltibia 9.17226
lfoot -10.7107 0.00720991
ltoes -29.5773
985
root 9.2017 22.6048 -21.3851 -154.876 -0.745564 178.476
lowerback -28.9236 -1.16487 -7.03163
upperback -2.03298 0.0314099 -0.481541
thorax 12.9551 -0.687957 3.23774
lowerneck -4.58788 -2.03065 -0.363679
upperneck 3.33332 -2.80362 2.28237
head 1.86194 -1.35536 0.693575
rclavicle 4.42296e-015 0
rhumerus -39.4864 -20.3533 -76.2519
rradius 31.2386
rwrist -1.88436
rhand -6.63736 -53.0996
rfingers 7.12502
rthumb 19.2196 -82.1699
lclavicle 4.42296e-015 0
lhumerus -30.9319 5.15328 80.1964
lradius 20.8121
lwrist -5.07972
lhand -20.4983 -13.2262
lfingers 7.12502
lthumb 5.85874 16.6728
rfemur -20.7951 7.54667 18.6292
rtibia 5.53005
rfoot -18.1386 -6.63601
rtoes -34.1716
lfemur -20.9237 -10.159 -20.1796
ltibia 9.14368
lfoot -10.7144 0.0279893
ltoes -29.8642
986
root 9.19753 22.6042 -21.3921 -154.743 -0.75621 178.6
lowerback -29.3011 -1.20865 -6.91842
upperback -1.8796 -0.021591 -0.400432
thorax 13.31 -0.716684 3.24152
lowerneck -4.84564 -2.00152 -0.420791
upperneck 3.20039 -2.7572 2.27843
head 1.8652 -1.33178 0.701638
rclavicle -6.4605e-016 6.36111e-015
rhumerus -39.1908 -20.3072 -76.3106
rradius 31.1287
rwrist -1.95193
rhand -6.3306 -53.7793
rfingers 7.12502
rthumb 19.5145 -82.8199
lclavicle -6.4605e-016 6.36111e-015
lhumerus -30.765 5.84772 79.9929
lradius 20.4282
lwrist -5.60096
lhand -20.6051 -13.516
lfingers 7.12502
lthumb 5.75561 16.3858
rfemur -20.8947 7.52443 18.7541
rtibia 5.49533
rfoot -18.1656 -6.53324
rtoes -34.0474
lfemur -21.0088 -10.2186 -20.0242
ltibia 9.08654
lfoot -10.7457 0.0897678
ltoes -29.9539
